<svg width="2613" height="1449" viewBox="0 0 2613 1449" fill="none" xmlns="http://www.w3.org/2000/svg">
<path d="M2613 219V1418C2613 1418 2035 1583.5 1277 1147.5C519 711.5 0 1418 0 1418V219C0 219 436 509 913.5 488C1391 467 1736.59 0 2180.5 0C2481.5 0 2613 219 2613 219Z" fill="url(#paint0_radial)"/>
<path d="M2613 219V1418C2613 1418 2035 1583.5 1277 1147.5C519 711.5 0 1418 0 1418V219C0 219 436 509 913.5 488C1391 467 1736.59 0 2180.5 0C2481.5 0 2613 219 2613 219Z" fill="url(#paint1_angular)"/>
<path d="M2613 219V1418C2613 1418 2035 1583.5 1277 1147.5C519 711.5 0 1418 0 1418V219C0 219 436 509 913.5 488C1391 467 1736.59 0 2180.5 0C2481.5 0 2613 219 2613 219Z" fill="url(#paint2_radial)"/>
<path d="M2613 219V1418C2613 1418 2035 1583.5 1277 1147.5C519 711.5 0 1418 0 1418V219C0 219 436 509 913.5 488C1391 467 1736.59 0 2180.5 0C2481.5 0 2613 219 2613 219Z" fill="url(#paint3_radial)"/>
<path d="M2613 219V1418C2613 1418 2035 1583.5 1277 1147.5C519 711.5 0 1418 0 1418V219C0 219 436 509 913.5 488C1391 467 1736.59 0 2180.5 0C2481.5 0 2613 219 2613 219Z" fill="url(#paint4_radial)"/>
<path d="M2613 219V1418C2613 1418 2035 1583.5 1277 1147.5C519 711.5 0 1418 0 1418V219C0 219 436 509 913.5 488C1391 467 1736.59 0 2180.5 0C2481.5 0 2613 219 2613 219Z" fill="url(#paint5_radial)" fill-opacity="0.1"/>
<path d="M2613 219V1418C2613 1418 2035 1583.5 1277 1147.5C519 711.5 0 1418 0 1418V219C0 219 436 509 913.5 488C1391 467 1736.59 0 2180.5 0C2481.5 0 2613 219 2613 219Z" fill="url(#paint6_radial)"/>
<path d="M2613 219V1418C2613 1418 2035 1583.5 1277 1147.5C519 711.5 0 1418 0 1418V219C0 219 436 509 913.5 488C1391 467 1736.59 0 2180.5 0C2481.5 0 2613 219 2613 219Z" fill="url(#paint7_radial)"/>
<path d="M2613 219V1418C2613 1418 2035 1583.5 1277 1147.5C519 711.5 0 1418 0 1418V219C0 219 436 509 913.5 488C1391 467 1736.59 0 2180.5 0C2481.5 0 2613 219 2613 219Z" fill="url(#paint8_radial)"/>
<path d="M2613 219V1418C2613 1418 2035 1583.5 1277 1147.5C519 711.5 0 1418 0 1418V219C0 219 436 509 913.5 488C1391 467 1736.59 0 2180.5 0C2481.5 0 2613 219 2613 219Z" fill="url(#paint9_radial)"/>
<path d="M2613 219V1418C2613 1418 2035 1583.5 1277 1147.5C519 711.5 0 1418 0 1418V219C0 219 436 509 913.5 488C1391 467 1736.59 0 2180.5 0C2481.5 0 2613 219 2613 219Z" fill="url(#paint10_radial)" style="mix-blend-mode:hard-light"/>
<defs>
<radialGradient id="paint0_radial" cx="0" cy="0" r="1" gradientUnits="userSpaceOnUse" gradientTransform="translate(557.799 607.797) rotate(78.6165) scale(762.493 1020.52)">
<stop stop-color="#A960EE"/>
<stop offset="1" stop-color="#C788CB"/>
</radialGradient>
<radialGradient id="paint1_angular" cx="0" cy="0" r="1" gradientUnits="userSpaceOnUse" gradientTransform="translate(577.652 703.115) rotate(-86.1155) scale(236.329 283.772)">
<stop offset="0.495182" stop-color="#90E0FF"/>
<stop offset="1" stop-color="#A960EE" stop-opacity="0"/>
</radialGradient>
<radialGradient id="paint2_radial" cx="0" cy="0" r="1" gradientUnits="userSpaceOnUse" gradientTransform="translate(139.61 690.573) rotate(100.864) scale(740.703 718.048)">
<stop offset="0.411761" stop-color="#FFCB57"/>
<stop offset="0.719902" stop-color="#B778E1" stop-opacity="0"/>
</radialGradient>
<radialGradient id="paint3_radial" cx="0" cy="0" r="1" gradientUnits="userSpaceOnUse" gradientTransform="translate(-4.07068e-05 1418) rotate(-22.8408) scale(756.053 719.335)">
<stop offset="0.192069" stop-color="#FF333D"/>
<stop offset="0.545432" stop-color="#B778E0" stop-opacity="0"/>
</radialGradient>
<radialGradient id="paint4_radial" cx="0" cy="0" r="1" gradientUnits="userSpaceOnUse" gradientTransform="translate(1197.57 432.211) rotate(-17.9124) scale(561.016 411.34)">
<stop offset="0.317029" stop-color="#FFCB57"/>
<stop offset="1" stop-color="#EE755C" stop-opacity="0"/>
</radialGradient>
<radialGradient id="paint5_radial" cx="0" cy="0" r="1" gradientUnits="userSpaceOnUse" gradientTransform="translate(504.005 905.039) rotate(83.2227) scale(493.837 759.588)">
<stop offset="0.507408" stop-color="#90E0FF"/>
<stop offset="1" stop-color="#A960EE" stop-opacity="0"/>
</radialGradient>
<radialGradient id="paint6_radial" cx="0" cy="0" r="1" gradientUnits="userSpaceOnUse" gradientTransform="translate(199.89 1237.92) rotate(-149.042) scale(332.006 264.293)">
<stop offset="0.259592" stop-color="#A960EE"/>
<stop offset="1" stop-color="#FF333D" stop-opacity="0"/>
</radialGradient>
<radialGradient id="paint7_radial" cx="0" cy="0" r="1" gradientUnits="userSpaceOnUse" gradientTransform="translate(511.885 900.989) rotate(84.5284) scale(584.737 531.856)">
<stop stop-color="#B8EBFF"/>
<stop offset="0.605789" stop-color="#90E0FF"/>
<stop offset="0.832381" stop-color="#A960EE" stop-opacity="0"/>
</radialGradient>
<radialGradient id="paint8_radial" cx="0" cy="0" r="1" gradientUnits="userSpaceOnUse" gradientTransform="translate(172.012 1025.3) rotate(6.27331) scale(350.871 275.347)">
<stop stop-color="#AFE9FF"/>
<stop offset="0.414475" stop-color="#90E0FF"/>
<stop offset="1" stop-color="#90E0FF" stop-opacity="0"/>
</radialGradient>
<radialGradient id="paint9_radial" cx="0" cy="0" r="1" gradientUnits="userSpaceOnUse" gradientTransform="translate(1480.63 818.5) rotate(168.08) scale(933.721 396.25)">
<stop offset="0.447917" stop-color="#E7555C"/>
<stop offset="0.831859" stop-color="#A960EE" stop-opacity="0"/>
</radialGradient>
<radialGradient id="paint10_radial" cx="0" cy="0" r="1" gradientUnits="userSpaceOnUse" gradientTransform="translate(1487.68 412.144) rotate(75.8501) scale(825.207 2329.81)">
<stop offset="0.166667" stop-color="#EE755C"/>
<stop offset="0.483429" stop-color="#90E0FF" stop-opacity="0"/>
</radialGradient>
</defs>
</svg>
