<svg width="61" height="48" viewBox="0 0 61 48" fill="none" xmlns="http://www.w3.org/2000/svg">
<rect y="3" width="61" height="41" rx="5" fill="#F6921E"/>
<rect x="20" y="10" width="22" height="28" fill="white"/>
<path d="M29.391 24.6634L29.4621 29.5609C30.975 29.5114 35.7156 29.8196 35.6779 27.0324C35.6198 24.1656 30.9243 24.6934 29.391 24.6634Z" fill="#ED6C0C"/>
<path d="M35.6983 27.1117C35.7197 24.2246 30.9243 24.6932 29.4114 24.7427L29.4621 29.5607" fill="#F6921E"/>
<path d="M29.3681 17.9736L29.4166 22.4531C30.691 22.4649 34.6548 22.7183 34.5988 20.19C34.5224 17.5823 30.6425 17.9853 29.3681 17.9736Z" fill="#ED6C0C"/>
<path d="M34.5988 20.19C34.6019 17.5618 30.6425 17.9853 29.3681 17.9736L29.4166 22.4531" fill="#F6921E"/>
<path d="M30.8536 4.28551C19.9433 4.3751 11.2198 13.3109 11.289 24.1417C11.3786 35.0521 20.2349 43.7959 31.1452 43.7063C42.0556 43.6167 50.7994 34.7605 50.7098 23.8501C50.6406 13.0193 41.7844 4.27542 30.8536 4.28551ZM38.7334 19.1282C38.9645 21.0182 38.1758 22.2378 36.8263 22.9233C38.9796 23.3874 40.3217 24.6531 40.0414 27.522C39.7653 31.0679 37.1232 32.0006 33.3819 32.2833L33.4056 36.0064L31.175 35.9012L31.1716 32.2576C30.5742 32.2415 29.9768 32.2255 29.3998 32.2889L29.4032 35.9325L27.1929 35.9068L27.1692 32.1837C26.6513 32.1471 26.1538 32.1901 25.5564 32.174L22.6692 32.1527L23.0903 29.5019L24.7031 29.5115C25.3005 29.5276 25.5165 29.0484 25.5347 28.7894L25.4776 22.956C25.5571 22.9356 25.6366 22.9152 25.7365 22.9743C25.657 22.9947 25.5571 22.9356 25.4776 22.956L25.4312 18.8149C25.3087 18.3379 25.0068 17.8221 24.1708 17.8673L22.558 17.8577L22.5429 15.4884L25.589 15.469C26.007 15.4464 26.5249 15.4829 27.0224 15.4399L27.019 11.7963L29.2293 11.822L29.2122 15.3861C29.8096 15.4022 30.3866 15.3388 30.984 15.3549L30.9216 11.8112L33.1318 11.8369L33.1352 15.4805C36.1427 15.6405 38.4776 16.4817 38.7334 19.1282Z" fill="#F6921E"/>
</svg>
